<svg width="140" height="140" viewBox="0 0 140 140" fill="none" xmlns="http://www.w3.org/2000/svg">
<rect width="140" height="140" rx="8" fill="#F5F5F5"/>
<path d="M53.275 80.0625C45.9433 80.0625 40 74.1416 40 66.8438C40 61.0789 43.7032 56.177 48.8684 54.3686C48.8565 54.1207 48.85 53.8729 48.85 53.625C48.85 45.5102 55.4506 38.9375 63.6 38.9375C69.0667 38.9375 73.8328 41.8979 76.3864 46.2996C77.7877 45.2807 79.4839 44.8125 81.3 44.8125C86.1859 44.8125 90.15 48.6771 90.15 53.625C90.15 54.7449 89.938 55.8098 89.56 56.8012C94.9437 57.8844 99 62.6303 99 68.3125C99 74.8025 93.7177 80.0625 87.2 80.0625H53.275ZM60.5578 60.1426C59.7005 61.0055 59.7005 62.4008 60.5578 63.1811C61.4244 64.1174 62.8256 64.1174 63.6092 63.1811L67.2875 59.6744V71.9844C67.2875 73.2053 68.2739 74.1875 69.5 74.1875C70.7261 74.1875 71.7125 73.2053 71.7125 71.9844V59.6744L75.3078 63.1811C76.1744 64.1174 77.5756 64.1174 78.3592 63.1811C79.2995 62.4008 79.2995 61.0055 78.3592 60.1426L70.9842 52.7988C70.2006 51.9451 68.7994 51.9451 67.9328 52.7988L60.5578 60.1426Z" fill="#DDDDDD"/>
<path d="M14.5838 102.6V103.392H17.1638V111H18.0038V103.392H20.5838V102.6H14.5838ZM24.3781 104.172C24.3541 103.92 24.4621 103.824 24.6301 103.74C24.8341 103.632 25.0381 103.404 25.0381 102.96C25.0381 102.384 24.5821 102.108 24.0901 102.108C23.6581 102.108 23.2501 102.348 23.0581 102.852C23.3821 103.056 23.5981 103.116 23.5861 103.128C23.6821 102.828 23.8981 102.696 24.0901 102.696C24.2701 102.696 24.4141 102.804 24.4141 102.972C24.4141 103.176 24.2941 103.26 24.1501 103.356C24.1621 103.344 24.0301 103.416 24.0301 103.416C23.8021 103.572 23.7901 103.716 23.7901 104.172H24.3781ZM25.7461 106.176C25.1941 105.3 24.3901 104.856 23.3221 104.856C22.4701 104.856 21.7381 105.156 21.1261 105.768C20.5261 106.38 20.2261 107.124 20.2261 108C20.2261 108.876 20.5261 109.62 21.1261 110.232C21.7381 110.844 22.4701 111.144 23.3221 111.144C24.3901 111.144 25.1941 110.7 25.7461 109.824V111H26.5381V105H25.7461V106.176ZM21.7021 109.692C21.2461 109.224 21.0181 108.66 21.0181 108C21.0181 107.34 21.2461 106.776 21.7021 106.32C22.1581 105.852 22.7221 105.624 23.3821 105.624C24.0421 105.624 24.6061 105.852 25.0621 106.32C25.5181 106.776 25.7461 107.34 25.7461 108C25.7461 108.66 25.5181 109.224 25.0621 109.692C24.6061 110.148 24.0421 110.376 23.3821 110.376C22.7221 110.376 22.1581 110.148 21.7021 109.692ZM29.019 103.956C29.247 103.728 29.247 103.368 29.019 103.14C28.791 102.912 28.431 102.912 28.203 103.14C27.975 103.368 27.975 103.728 28.203 103.956C28.431 104.184 28.791 104.184 29.019 103.956ZM29.007 111V105H28.215V111H29.007ZM34.4797 111V102.24H33.6877V111H34.4797ZM39.8203 104.16H40.7203L39.4483 102.6H38.5123L37.2403 104.16H38.1403L38.9803 103.116L39.8203 104.16ZM38.9323 104.856C38.0083 104.856 37.2643 105.156 36.6763 105.756C36.0883 106.356 35.8003 107.1 35.8003 108C35.8003 108.912 36.1003 109.668 36.6883 110.256C37.2763 110.844 38.0443 111.144 38.9923 111.144C40.1563 111.144 41.1043 110.616 41.6323 109.764L40.9363 109.356C40.6003 109.968 39.9163 110.376 39.0043 110.376C37.7203 110.376 36.7723 109.608 36.6163 108.396H41.8843C41.8963 108.24 41.9083 108.108 41.9083 108.024C41.9083 107.172 41.6323 106.428 41.0803 105.804C40.5403 105.168 39.8203 104.856 38.9323 104.856ZM38.9323 105.624C39.4723 105.624 39.9523 105.804 40.3603 106.152C40.7683 106.5 41.0083 106.992 41.0923 107.628H36.6163C36.7723 106.44 37.6843 105.624 38.9323 105.624ZM45.9761 104.856C45.0761 104.856 44.4041 105.216 43.9601 105.936V105H43.1681V111H43.9601V107.856C43.9601 106.332 44.7521 105.624 45.9041 105.624C46.9481 105.624 47.5361 106.248 47.5361 107.316V111H48.3281V107.316C48.3281 105.816 47.4281 104.856 45.9761 104.856ZM56.6515 104.172C56.6275 103.92 56.7355 103.824 56.9035 103.74C57.1075 103.632 57.3115 103.404 57.3115 102.96C57.3115 102.384 56.8555 102.108 56.3635 102.108C55.9315 102.108 55.5235 102.348 55.3315 102.852C55.6555 103.056 55.8715 103.116 55.8595 103.128C55.9555 102.828 56.1715 102.696 56.3635 102.696C56.5435 102.696 56.6875 102.804 56.6875 102.972C56.6875 103.176 56.5675 103.26 56.4235 103.356C56.4355 103.344 56.3035 103.416 56.3035 103.416C56.0755 103.572 56.0635 103.716 56.0635 104.172H56.6515ZM58.0195 106.176C57.4675 105.3 56.6635 104.856 55.5955 104.856C54.7435 104.856 54.0115 105.156 53.3995 105.768C52.7995 106.38 52.4995 107.124 52.4995 108C52.4995 108.876 52.7995 109.62 53.3995 110.232C54.0115 110.844 54.7435 111.144 55.5955 111.144C56.6635 111.144 57.4675 110.7 58.0195 109.824V111H58.8115V105H58.0195V106.176ZM53.9755 109.692C53.5195 109.224 53.2915 108.66 53.2915 108C53.2915 107.34 53.5195 106.776 53.9755 106.32C54.4315 105.852 54.9955 105.624 55.6555 105.624C56.3155 105.624 56.8795 105.852 57.3355 106.32C57.7915 106.776 58.0195 107.34 58.0195 108C58.0195 108.66 57.7915 109.224 57.3355 109.692C56.8795 110.148 56.3155 110.376 55.6555 110.376C54.9955 110.376 54.4315 110.148 53.9755 109.692ZM63.2964 104.856C62.3964 104.856 61.7244 105.216 61.2804 105.936V105H60.4884V111H61.2804V107.856C61.2804 106.332 62.0724 105.624 63.2244 105.624C64.2684 105.624 64.8564 106.248 64.8564 107.316V111H65.6484V107.316C65.6484 105.816 64.7484 104.856 63.2964 104.856ZM69.9878 104.856C69.0878 104.856 68.4158 105.216 67.9718 105.936V102.6H67.1798V111H67.9718V107.856C67.9718 106.332 68.7638 105.624 69.9158 105.624C70.9598 105.624 71.5478 106.248 71.5478 107.316V111H72.3398V107.316C72.3398 105.816 71.4398 104.856 69.9878 104.856ZM83.2673 104.856C82.4033 104.856 81.7553 105.216 81.3233 105.948C80.9753 105.216 80.3633 104.856 79.4993 104.856C78.7073 104.856 78.0953 105.192 77.6633 105.876V105H76.8713V111H77.6633V107.676C77.6633 106.284 78.4313 105.624 79.3913 105.624C80.2553 105.624 80.7953 106.2 80.7953 107.256V111H81.5873V107.676C81.5873 106.272 82.2593 105.624 83.2553 105.624C84.1313 105.624 84.7193 106.212 84.7193 107.256V111H85.5113V107.256C85.5113 105.78 84.6113 104.856 83.2673 104.856ZM87.8471 103.956C88.0751 103.728 88.0751 103.368 87.8471 103.14C87.6191 102.912 87.2591 102.912 87.0311 103.14C86.8031 103.368 86.8031 103.728 87.0311 103.956C87.2591 104.184 87.6191 104.184 87.8471 103.956ZM87.8351 111V105H87.0431V111H87.8351ZM92.3238 104.856C91.4238 104.856 90.7518 105.216 90.3078 105.936V105H89.5158V111H90.3078V107.856C90.3078 106.332 91.0998 105.624 92.2518 105.624C93.2958 105.624 93.8838 106.248 93.8838 107.316V111H94.6758V107.316C94.6758 105.816 93.7758 104.856 92.3238 104.856ZM99.0152 104.856C98.1152 104.856 97.4432 105.216 96.9992 105.936V102.6H96.2072V111H96.9992V107.856C96.9992 106.332 97.7912 105.624 98.9432 105.624C99.9872 105.624 100.575 106.248 100.575 107.316V111H101.367V107.316C101.367 105.816 100.467 104.856 99.0152 104.856ZM108.707 104.856C107.807 104.856 107.135 105.216 106.691 105.936V102.6H105.899V111H106.691V107.856C106.691 106.332 107.483 105.624 108.635 105.624C109.679 105.624 110.267 106.248 110.267 107.316V111H111.059V107.316C111.059 105.816 110.159 104.856 108.707 104.856ZM115.77 113.004C115.998 112.776 115.998 112.416 115.77 112.188C115.542 111.96 115.182 111.96 114.954 112.188C114.726 112.416 114.726 112.776 114.954 113.004C115.182 113.232 115.542 113.232 115.77 113.004ZM117.618 110.244C118.23 109.632 118.542 108.888 118.542 108C118.542 107.112 118.23 106.368 117.618 105.768C117.006 105.156 116.262 104.856 115.386 104.856C114.51 104.856 113.754 105.156 113.142 105.768C112.53 106.368 112.23 107.112 112.23 108C112.23 108.888 112.53 109.632 113.142 110.244C113.754 110.844 114.51 111.144 115.386 111.144C116.262 111.144 117.006 110.844 117.618 110.244ZM113.706 109.692C113.25 109.224 113.022 108.66 113.022 108C113.022 107.34 113.25 106.776 113.706 106.32C114.162 105.852 114.726 105.624 115.386 105.624C116.046 105.624 116.61 105.852 117.066 106.32C117.522 106.776 117.75 107.34 117.75 108C117.75 108.66 117.522 109.224 117.066 109.692C116.61 110.148 116.046 110.376 115.386 110.376C114.726 110.376 114.162 110.148 113.706 109.692ZM125.027 106.176C124.475 105.3 123.671 104.856 122.603 104.856C121.751 104.856 121.019 105.156 120.407 105.768C119.807 106.38 119.507 107.124 119.507 108C119.507 108.876 119.807 109.62 120.407 110.232C121.019 110.844 121.751 111.144 122.603 111.144C123.671 111.144 124.475 110.7 125.027 109.824V111H125.819V105H125.027V106.176ZM120.983 109.692C120.527 109.224 120.299 108.66 120.299 108C120.299 107.34 120.527 106.776 120.983 106.32C121.439 105.852 122.003 105.624 122.663 105.624C123.323 105.624 123.887 105.852 124.343 106.32C124.799 106.776 125.027 107.34 125.027 108C125.027 108.66 124.799 109.224 124.343 109.692C123.887 110.148 123.323 110.376 122.663 110.376C122.003 110.376 121.439 110.148 120.983 109.692Z" fill="#A7ADB2"/>
</svg>
